<?xml version="1.0" encoding="UTF-8" standalone="no"?>
<svg width="34px" height="27px" viewBox="0 0 34 27" version="1.1" xmlns="http://www.w3.org/2000/svg" xmlns:xlink="http://www.w3.org/1999/xlink" xmlns:sketch="http://www.bohemiancoding.com/sketch/ns">
    <title>Untitled 3</title>
    <description>Created with Sketch (http://www.bohemiancoding.com/sketch)</description>
    <defs></defs>
    <g id="Page-1" stroke="none" stroke-width="1" fill="none" fill-rule="evenodd" sketch:type="MSPage">
        <g id="picture13" sketch:type="MSLayerGroup" transform="translate(1.000000, 0.000000)" fill="#000000">
            <g id="Group" sketch:type="MSShapeGroup">
                <path d="M31.2582564,0.885664 C30.7345641,0.35464 30.1054359,0.089232 29.3698462,0.089232 L2.62994872,0.089232 C1.8945641,0.089232 1.26523077,0.35464 0.741333333,0.885664 C0.217641026,1.416688 -0.0441025641,2.054832 -0.0441025641,2.800512 L-0.0441025641,23.40728 C-0.0441025641,24.15296 0.217641026,24.791312 0.741333333,25.322336 C1.26523077,25.85336 1.8945641,26.118768 2.62994872,26.118768 L29.3702564,26.118768 C30.1054359,26.118768 30.7347692,25.85336 31.2584615,25.322336 C31.7821538,24.791312 32.0441026,24.15296 32.0441026,23.40728 L32.0441026,2.800512 C32.0441026,2.054832 31.7821538,1.416688 31.2582564,0.885664 L31.2582564,0.885664 Z M29.9044103,23.407072 C29.9044103,23.554128 29.8516923,23.681008 29.7458462,23.788544 C29.64,23.895664 29.5146667,23.94912 29.3698462,23.94912 L2.62994872,23.94912 C2.48512821,23.94912 2.35979487,23.895664 2.25394872,23.788544 C2.14810256,23.681008 2.09517949,23.554128 2.09517949,23.407072 L2.09517949,2.800304 C2.09517949,2.653456 2.14789744,2.526576 2.25394872,2.41904 C2.35979487,2.31192 2.48512821,2.258256 2.62994872,2.258256 L29.3702564,2.258256 C29.5148718,2.258256 29.6402051,2.31192 29.7458462,2.41904 C29.8514872,2.526576 29.9044103,2.653456 29.9044103,2.800304 L29.9044103,23.407072 L29.9044103,23.407072 Z" id="Shape"></path>
                <path d="M7.44328205,10.934768 C8.33476923,10.934768 9.09230769,10.618608 9.71630769,9.985872 C10.3401026,9.353136 10.6521026,8.584992 10.6521026,7.681232 C10.6521026,6.777264 10.3398974,6.00912 9.71630769,5.376384 C9.09230769,4.743856 8.33476923,4.427488 7.44328205,4.427488 C6.552,4.427488 5.79446154,4.743856 5.17046154,5.376384 C4.54666667,6.00912 4.23466667,6.777264 4.23466667,7.681232 C4.23466667,8.584992 4.54646154,9.353344 5.17046154,9.985872 C5.79446154,10.6184 6.552,10.934768 7.44328205,10.934768 L7.44328205,10.934768 Z" id="Shape"></path>
                <path d="M12.2564103,15.81528 L9.58235897,13.104 L4.23446154,18.526768 L4.23446154,21.780512 L27.7655385,21.780512 L27.7655385,14.188512 L20.8133333,7.138768 L12.2564103,15.81528 Z" id="Shape"></path>
            </g>
        </g>
    </g>
</svg>