<?xml version="1.0" encoding="UTF-8" standalone="no"?>
<svg width="128px" height="85px" viewBox="0 0 128 85" version="1.1" xmlns="http://www.w3.org/2000/svg" xmlns:xlink="http://www.w3.org/1999/xlink" xmlns:sketch="http://www.bohemiancoding.com/sketch/ns">
    <title>blue_icon</title>
    <description>Created with Sketch (http://www.bohemiancoding.com/sketch)</description>
    <defs></defs>
    <g id="Page-1" stroke="none" stroke-width="1" fill="none" fill-rule="evenodd" sketch:type="MSPage">
        <g id="noun_82014_cc-(1)" sketch:type="MSLayerGroup" transform="translate(2.000000, -3.000000)" fill="#3295D9">
            <g id="Group" sketch:type="MSShapeGroup">
                <g transform="translate(54.008210, 4.281081)" id="Shape">
                    <path d="M68.9737274,12.7837838 L57.2660099,1.0227027 C55.9934319,-0.255675676 53.9573071,-0.255675676 52.5574713,1.0227027 L50.5213465,3.19594595 L44.1584565,9.58783784 L41.8678161,11.8889189 L9.54433498,44.2318919 C9.41707718,44.3597297 9.28981938,44.4875676 9.16256158,44.7432432 C9.03530378,44.8710811 9.03530378,44.9989189 8.90804598,45.1267568 L8.78078818,45.2545946 L4.99600361e-16,65.7086486 C-0.509031199,66.987027 -0.254515599,68.3932432 0.636288998,69.2881081 C1.272578,69.9272973 2.16338259,70.3108108 2.92692939,70.3108108 C3.30870279,70.3108108 3.81773399,70.182973 4.19950739,70.0551351 L24.5607553,61.2343243 C24.8152709,61.1064865 24.9425287,61.1064865 25.1970443,60.9786486 C25.3243021,60.9786486 25.3243021,60.8508108 25.4515599,60.722973 L25.7060755,60.4672973 L60.320197,25.6954054 L66.683087,19.3035135 L68.8464696,17.1302703 C69.4827586,16.4910811 69.864532,15.7240541 69.864532,14.8291892 C69.864532,14.19 69.6100164,13.2951351 68.9737274,12.7837838 L68.9737274,12.7837838 Z M9.41707718,60.8508108 L12.9802956,52.2856757 L17.816092,57.1435135 L9.41707718,60.8508108 L9.41707718,60.8508108 Z M18.1469622,43.8315775 L53.3514165,7.70952169 C53.5012227,7.70952169 53.5012227,7.55581081 53.5012227,7.55581081 L53.3514165,7.70952169 L61.7405631,16.3173307 L26.5361088,52.2856757 L18.1469622,43.8315775 Z"></path>
                    <path d="M8.90804598,45.1267568 L8.78078818,45.2545946 L8.90804598,45.1267568 C8.90804598,45.2545946 8.90804598,45.1267568 8.90804598,45.1267568 L8.90804598,45.1267568 Z"></path>
                    <path d="M46.7036125,16.2354054 L46.5763547,16.3632432 C46.5763547,16.3632432 46.5763547,16.3632432 46.7036125,16.2354054 L46.7036125,16.2354054 Z"></path>
                </g>
            </g>
        </g>
        <path d="M20.0214656,82.0203452 C20.2263184,82.0203452 20.0214657,74.0654534 20.0214656,74.0654534 L52.3005545,74.0654534 C54.5799585,74.0654534 56,75.5846582 56,77.6538543 C56,79.7230505 54.5799586,81.8358456 52.3005546,81.8358456 L41.229162,81.8358456 C39.5865102,81.8358456 19.8166128,82.0203452 20.0214656,82.0203452 Z" id="Shape" fill="#3295D9" sketch:type="MSShapeGroup"></path>
        <path d="M20.708134,82 C10.4593301,82 2,74.0173913 2,64 C2,54.1391304 10.2966507,46 20.708134,46 L31.7703349,46 C34.0478469,46 36,47.8782609 36,50.0695652 C36,52.2608696 34.0478469,54.1391304 31.7703349,54.1391304 L20.708134,54.1391304 C15.0143541,54.1391304 10.4593301,58.5217391 10.4593301,64 C10.4593301,69.4782609 15.0143541,73.8608696 20.708134,73.8608696 L20.708134,82 Z" id="Shape" fill="#3295D9" sketch:type="MSShapeGroup"></path>
    </g>
</svg>