<?xml version="1.0" encoding="UTF-8" standalone="no"?>
<svg width="234px" height="158px" viewBox="0 0 234 158" version="1.1" xmlns="http://www.w3.org/2000/svg" xmlns:xlink="http://www.w3.org/1999/xlink" xmlns:sketch="http://www.bohemiancoding.com/sketch/ns">
    <title>large_icon</title>
    <description>Created with Sketch (http://www.bohemiancoding.com/sketch)</description>
    <defs></defs>
    <g id="Page-1" stroke="none" stroke-width="1" fill="none" fill-rule="evenodd" sketch:type="MSPage">
        <g id="noun_82014_cc-(1)" sketch:type="MSLayerGroup" transform="translate(0.000000, -5.000000)" fill="#ACACAC">
            <g id="Group" sketch:type="MSShapeGroup">
                <g transform="translate(101.047619, 8.000000)" id="Shape">
                    <path d="M129.047619,23.8888889 L107.142857,1.91111111 C104.761905,-0.477777778 100.952381,-0.477777778 98.3333333,1.91111111 L94.5238095,5.97222222 L82.6190476,17.9166667 L78.3333333,22.2166667 L17.8571429,82.6555556 C17.6190476,82.8944444 17.3809524,83.1333333 17.1428571,83.6111111 C16.9047619,83.85 16.9047619,84.0888889 16.6666667,84.3277778 L16.4285714,84.5666667 L-7.21644966e-15,122.788889 C-0.952380952,125.177778 -0.476190476,127.805556 1.19047619,129.477778 C2.38095238,130.672222 4.04761905,131.388889 5.47619048,131.388889 C6.19047619,131.388889 7.14285714,131.15 7.85714286,130.911111 L45.952381,114.427778 C46.4285714,114.188889 46.6666667,114.188889 47.1428571,113.95 C47.3809524,113.95 47.3809524,113.711111 47.6190476,113.472222 L48.0952381,112.994444 L112.857143,48.0166667 L124.761905,36.0722222 L128.809524,32.0111111 C130,30.8166667 130.714286,29.3833333 130.714286,27.7111111 C130.714286,26.5166667 130.238095,24.8444444 129.047619,23.8888889 L129.047619,23.8888889 Z M17.6190476,113.711111 L24.2857143,97.7055556 L33.3333333,106.783333 L17.6190476,113.711111 L17.6190476,113.711111 Z M33.952381,81.9074933 L99.8187793,14.4066819 C100.099062,14.4066819 100.099062,14.1194444 100.099062,14.1194444 L99.8187793,14.4066819 L115.514602,30.4919817 L49.6482035,97.7055556 L33.952381,81.9074933 Z"></path>
                    <path d="M16.6666667,84.3277778 L16.4285714,84.5666667 L16.6666667,84.3277778 C16.6666667,84.5666667 16.6666667,84.3277778 16.6666667,84.3277778 L16.6666667,84.3277778 Z"></path>
                    <path d="M87.3809524,30.3388889 L87.1428571,30.5777778 C87.1428571,30.5777778 87.1428571,30.5777778 87.3809524,30.3388889 L87.3809524,30.3388889 Z"></path>
                </g>
            </g>
        </g>
        <path d="M36.2322472,154 C29.0742862,154.000001 29.8221991,150.345691 26.293682,141.729971 C24.148178,136.491208 34.1167041,138.456668 44.5052329,138.133649 C54.1763181,137.832939 66.3067444,138.133649 75.6192427,138.133649 L96.1423241,138.133649 C100.367664,138.133649 103,141.235711 103,145.460799 C103,149.685887 100.367664,154 96.1423243,154 L75.6192429,154 C70.1407976,154 43.3902083,153.999999 36.2322472,154 Z" id="Shape" fill="#ACACAC" sketch:type="MSShapeGroup"></path>
        <path d="M35.6650718,154 C16.6746411,154 1,138.7 1,119.5 C1,100.6 16.3732057,85 35.6650718,85 L56.1626794,85 C60.3827751,85 64,88.6 64,92.8 C64,97 60.3827751,100.6 56.1626794,100.6 L35.6650718,100.6 C25.1148325,100.6 16.6746411,109 16.6746411,119.5 C16.6746411,130 25.1148325,138.4 35.6650718,138.4 L35.6650718,154 Z" id="Shape" fill="#ACACAC" sketch:type="MSShapeGroup"></path>
    </g>
</svg>