<?xml version="1.0" encoding="UTF-8" standalone="no"?>
<svg width="79px" height="63px" viewBox="0 0 79 63" version="1.1" xmlns="http://www.w3.org/2000/svg" xmlns:xlink="http://www.w3.org/1999/xlink" xmlns:sketch="http://www.bohemiancoding.com/sketch/ns">
    <title>white_icon</title>
    <description>Created with Sketch (http://www.bohemiancoding.com/sketch)</description>
    <defs></defs>
    <g id="Page-1" stroke="none" stroke-width="1" fill="none" fill-rule="evenodd" sketch:type="MSPage">
        <g id="noun_82014_cc-(1)" sketch:type="MSLayerGroup" transform="translate(3.000000, 5.000000)">
            <g id="Group" sketch:type="MSShapeGroup">
                <g transform="translate(32.230706, 2.551351)" id="Shape">
                    <path d="M41.1617406,7.61861862 L34.1748768,0.609489489 C33.4154351,-0.152372372 32.2003284,-0.152372372 31.3649425,0.609489489 L30.1498358,1.90465465 L26.3526273,5.71396396 L24.9856322,7.08531532 L5.69581281,26.3604204 C5.61986864,26.4366066 5.54392447,26.5127928 5.4679803,26.6651652 C5.39203612,26.7413514 5.39203612,26.8175375 5.31609195,26.8937237 L5.24014778,26.9699099 L-7.57727214e-15,39.1596997 C-0.303776683,39.9215616 -0.151888342,40.7596096 0.379720854,41.2929129 C0.759441708,41.6738438 1.2910509,41.9024024 1.74671593,41.9024024 C1.97454844,41.9024024 2.27832512,41.8262162 2.50615764,41.75003 L14.657225,36.4931832 C14.8091133,36.416997 14.8850575,36.416997 15.0369458,36.3408108 C15.11289,36.3408108 15.11289,36.2646246 15.1888342,36.1884384 L15.3407225,36.0360661 L35.9975369,15.3134234 L39.7947455,11.5041141 L41.0857964,10.2089489 C41.4655172,9.82801802 41.6933498,9.3709009 41.6933498,8.8375976 C41.6933498,8.45666667 41.5414614,7.92336336 41.1617406,7.61861862 L41.1617406,7.61861862 Z M5.61986864,36.2646246 L7.74630542,31.1601502 L10.6321839,34.0552252 L5.61986864,36.2646246 L5.61986864,36.2646246 Z M10.8296388,26.1218492 L31.8387486,4.59456343 C31.928149,4.59456343 31.928149,4.50295796 31.928149,4.50295796 L31.8387486,4.59456343 L36.8451747,9.72446983 L15.8360649,31.1601502 L10.8296388,26.1218492 Z" fill="#FFFFFF"></path>
                    <path d="M5.31609195,26.8937237 L5.24014778,26.9699099 L5.31609195,26.8937237 C5.31609195,26.9699099 5.31609195,26.8937237 5.31609195,26.8937237 L5.31609195,26.8937237 Z" fill="#ACACAC"></path>
                    <path d="M27.8715107,9.67564565 L27.7955665,9.75183183 C27.7955665,9.75183183 27.7955665,9.75183183 27.8715107,9.67564565 L27.8715107,9.67564565 Z" fill="#ACACAC"></path>
                </g>
                <path d="M49.8953202,0.108078078 L49.819376,0.184264264 C49.819376,0.184264264 49.819376,0.184264264 49.8953202,0.108078078 L49.8953202,0.108078078 Z" id="Shape" fill="#ACACAC"></path>
            </g>
        </g>
        <path d="M14.3221582,56 C11.9981449,56.0000003 12.2409737,54.6296342 11.0953513,51.398739 C10.3987591,49.4342031 13.6352935,50.1712504 17.0081925,50.0501184 C20.1481552,49.937352 24.0866053,50.0501184 27.1101437,50.0501184 L33.7734819,50.0501184 C35.1453454,50.0501184 36,51.2133916 36,52.7977996 C36,54.3822077 35.1453455,55.9999999 33.7734819,55.9999999 L27.1101438,55.9999999 C25.3314278,55.9999999 16.6461715,55.9999997 14.3221582,56 Z" id="Shape" fill="#FFFFFF" sketch:type="MSShapeGroup"></path>
        <path d="M14.0047847,56 C7.97607656,56 3,51.1217391 3,45 C3,38.973913 7.88038278,34 14.0047847,34 L20.5119617,34 C21.8516746,34 23,35.1478261 23,36.4869565 C23,37.826087 21.8516746,38.973913 20.5119617,38.973913 L14.0047847,38.973913 C10.6555024,38.973913 7.97607656,41.6521739 7.97607656,45 C7.97607656,48.3478261 10.6555024,51.026087 14.0047847,51.026087 L14.0047847,56 Z" id="Shape" fill="#FFFFFF" sketch:type="MSShapeGroup"></path>
    </g>
</svg>